<?xml version="1.0" standalone="no"?>
<!DOCTYPE svg PUBLIC "-//W3C//DTD SVG 20010904//EN"
 "http://www.w3.org/TR/2001/REC-SVG-20010904/DTD/svg10.dtd">
<svg version="1.0" xmlns="http://www.w3.org/2000/svg"
 width="512.000000pt" height="512.000000pt" viewBox="0 0 512.000000 512.000000"
 preserveAspectRatio="xMidYMid meet">
<metadata>
Created by potrace 1.11, written by Peter Selinger 2001-2013
</metadata>
<g transform="translate(0.000000,512.000000) scale(0.100000,-0.100000)"
fill="#34495e" stroke="none">
<path d="M2330 5030 c-658 -69 -1250 -381 -1675 -885 -106 -126 -240 -335
-320 -499 -116 -236 -191 -478 -232 -746 -24 -161 -24 -529 0 -690 69 -446
242 -850 517 -1202 83 -107 291 -315 398 -398 289 -225 634 -392 977 -473 208
-49 322 -61 570 -61 248 0 362 12 570 61 343 81 688 248 977 473 107 83 315
291 398 398 225 289 392 634 473 977 49 208 61 322 61 570 0 248 -12 362 -61
570 -81 344 -253 699 -474 977 -390 490 -960 817 -1589 913 -124 19 -469 27
-590 15z m1490 -1680 c272 -7 312 -11 366 -29 33 -12 75 -34 94 -49 l33 -28
-26 -49 c-36 -72 -58 -88 -130 -96 -34 -4 -251 -12 -482 -18 -231 -6 -458 -13
-505 -17 l-85 -6 1 -256 c1 -315 17 -417 86 -530 l20 -33 42 24 c72 43 136 58
331 77 317 32 432 24 514 -37 76 -58 84 -204 12 -232 -56 -21 -85 -21 -167 -1
-153 36 -388 20 -501 -36 -64 -31 -108 -91 -119 -160 -8 -54 16 -196 61 -369
39 -150 70 -226 126 -306 50 -71 90 -94 152 -87 52 6 68 18 242 172 236 209
448 339 607 373 43 9 80 15 82 12 2 -2 6 -40 10 -83 l7 -79 -108 -106 c-223
-218 -566 -475 -763 -570 -79 -39 -106 -46 -165 -49 -88 -4 -129 12 -202 81
-120 113 -222 311 -313 609 -114 371 -226 918 -290 1413 -11 88 -23 171 -26
185 -4 23 -13 27 -91 43 -112 24 -123 30 -123 72 0 45 34 84 110 124 106 57
144 61 540 55 195 -3 492 -9 660 -14z m-2606 -727 c3 -10 26 -142 51 -293 78
-474 122 -672 195 -885 75 -217 176 -404 257 -475 35 -31 39 -32 102 -26 121
11 184 35 466 176 295 148 333 161 504 181 119 13 171 4 197 -36 40 -62 9
-117 -111 -196 -186 -123 -683 -336 -977 -420 -134 -38 -198 -37 -278 7 -67
36 -167 143 -221 236 -148 252 -271 714 -344 1290 -35 277 -42 393 -24 414 22
27 70 43 126 44 41 0 53 -4 57 -17z"/>
</g>
</svg>
